<mxfile host="app.diagrams.net" agent="Mozilla/5.0 (Windows NT 10.0; Win64; x64) AppleWebKit/537.36 (KHTML, like Gecko) Chrome/137.0.0.0 Safari/537.36 Edg/137.0.0.0" version="27.1.6">
  <diagram name="Page-1" id="ewadq9snaq9OyRbeZTm2">
    <mxGraphModel dx="3739" dy="2749" grid="1" gridSize="10" guides="1" tooltips="1" connect="1" arrows="1" fold="1" page="1" pageScale="1" pageWidth="827" pageHeight="1169" math="0" shadow="0">
      <root>
        <mxCell id="0" />
        <mxCell id="1" parent="0" />
        <mxCell id="751YOafHhsMWOAO13Wd9-4" style="edgeStyle=orthogonalEdgeStyle;rounded=0;orthogonalLoop=1;jettySize=auto;html=1;" edge="1" parent="1" source="RVGChMHn7xWEIKGy9dse-7" target="751YOafHhsMWOAO13Wd9-1">
          <mxGeometry relative="1" as="geometry" />
        </mxCell>
        <mxCell id="RVGChMHn7xWEIKGy9dse-7" value="" style="rounded=0;whiteSpace=wrap;html=1;fillColor=#f8cecc;strokeColor=#b85450;" parent="1" vertex="1">
          <mxGeometry x="260" y="-260" width="570" height="350" as="geometry" />
        </mxCell>
        <mxCell id="RVGChMHn7xWEIKGy9dse-6" value="" style="rounded=0;whiteSpace=wrap;html=1;fillColor=#f5f5f5;fontColor=#333333;strokeColor=#666666;" parent="1" vertex="1">
          <mxGeometry x="-320" y="130" width="370" height="430" as="geometry" />
        </mxCell>
        <mxCell id="RVGChMHn7xWEIKGy9dse-3" value="AnalysisTestDocument" style="rounded=1;whiteSpace=wrap;html=1;" parent="1" vertex="1">
          <mxGeometry x="-240" y="270" width="220" height="60" as="geometry" />
        </mxCell>
        <mxCell id="RVGChMHn7xWEIKGy9dse-4" value="User Preferences / settings" style="rounded=1;whiteSpace=wrap;html=1;" parent="1" vertex="1">
          <mxGeometry x="-240" y="350" width="220" height="60" as="geometry" />
        </mxCell>
        <mxCell id="RVGChMHn7xWEIKGy9dse-8" value="Oxyplot Graph" style="rounded=1;whiteSpace=wrap;html=1;" parent="1" vertex="1">
          <mxGeometry x="320" y="-200" width="120" height="60" as="geometry" />
        </mxCell>
        <mxCell id="RVGChMHn7xWEIKGy9dse-9" value="Printing" style="rounded=1;whiteSpace=wrap;html=1;" parent="1" vertex="1">
          <mxGeometry x="630" y="-190" width="120" height="60" as="geometry" />
        </mxCell>
        <mxCell id="RVGChMHn7xWEIKGy9dse-10" value="Licensing" style="rounded=1;whiteSpace=wrap;html=1;" parent="1" vertex="1">
          <mxGeometry x="310" y="-30" width="120" height="60" as="geometry" />
        </mxCell>
        <mxCell id="RVGChMHn7xWEIKGy9dse-11" value="StringService" style="rounded=1;whiteSpace=wrap;html=1;" parent="1" vertex="1">
          <mxGeometry x="620" y="-30" width="120" height="60" as="geometry" />
        </mxCell>
        <mxCell id="RVGChMHn7xWEIKGy9dse-12" value="" style="group" parent="1" vertex="1" connectable="0">
          <mxGeometry x="250" y="150" width="590" height="350" as="geometry" />
        </mxCell>
        <mxCell id="RVGChMHn7xWEIKGy9dse-1" value="" style="rounded=1;whiteSpace=wrap;html=1;" parent="RVGChMHn7xWEIKGy9dse-12" vertex="1">
          <mxGeometry width="590" height="350" as="geometry" />
        </mxCell>
        <mxCell id="RVGChMHn7xWEIKGy9dse-2" value="Analysis Standard" style="text;html=1;align=center;verticalAlign=middle;whiteSpace=wrap;rounded=0;" parent="RVGChMHn7xWEIKGy9dse-12" vertex="1">
          <mxGeometry x="235" y="300" width="120" height="30" as="geometry" />
        </mxCell>
        <mxCell id="RVGChMHn7xWEIKGy9dse-13" value="Features Calculation" style="rounded=1;whiteSpace=wrap;html=1;" parent="RVGChMHn7xWEIKGy9dse-12" vertex="1">
          <mxGeometry x="69" y="110" width="166" height="60" as="geometry" />
        </mxCell>
        <mxCell id="RVGChMHn7xWEIKGy9dse-14" value="Views / ViewModels" style="rounded=1;whiteSpace=wrap;html=1;" parent="RVGChMHn7xWEIKGy9dse-12" vertex="1">
          <mxGeometry x="320" y="110" width="166" height="60" as="geometry" />
        </mxCell>
        <mxCell id="RVGChMHn7xWEIKGy9dse-15" value="WPF Styles &amp;amp; Controls" style="rounded=1;whiteSpace=wrap;html=1;" parent="1" vertex="1">
          <mxGeometry x="430" y="-110" width="170" height="60" as="geometry" />
        </mxCell>
        <mxCell id="RVGChMHn7xWEIKGy9dse-19" style="edgeStyle=orthogonalEdgeStyle;rounded=0;orthogonalLoop=1;jettySize=auto;html=1;entryX=0.5;entryY=1;entryDx=0;entryDy=0;" parent="1" source="RVGChMHn7xWEIKGy9dse-1" target="RVGChMHn7xWEIKGy9dse-7" edge="1">
          <mxGeometry relative="1" as="geometry" />
        </mxCell>
        <mxCell id="RVGChMHn7xWEIKGy9dse-21" value="" style="shape=flexArrow;endArrow=classic;html=1;rounded=0;endWidth=45;endSize=11.846666666666666;width=25.333333333333332;" parent="1" edge="1">
          <mxGeometry width="50" height="50" relative="1" as="geometry">
            <mxPoint x="120" y="340" as="sourcePoint" />
            <mxPoint x="200" y="340" as="targetPoint" />
          </mxGeometry>
        </mxCell>
        <mxCell id="RVGChMHn7xWEIKGy9dse-25" value="" style="group" parent="1" vertex="1" connectable="0">
          <mxGeometry x="-440" y="-145" width="430" height="120" as="geometry" />
        </mxCell>
        <mxCell id="RVGChMHn7xWEIKGy9dse-23" value="" style="rounded=1;whiteSpace=wrap;html=1;" parent="RVGChMHn7xWEIKGy9dse-25" vertex="1">
          <mxGeometry width="430" height="120" as="geometry" />
        </mxCell>
        <mxCell id="RVGChMHn7xWEIKGy9dse-24" value="Other Components in Explore" style="text;html=1;align=center;verticalAlign=middle;whiteSpace=wrap;rounded=0;" parent="RVGChMHn7xWEIKGy9dse-25" vertex="1">
          <mxGeometry x="105" y="70" width="220" height="30" as="geometry" />
        </mxCell>
        <mxCell id="RVGChMHn7xWEIKGy9dse-26" style="edgeStyle=orthogonalEdgeStyle;rounded=0;orthogonalLoop=1;jettySize=auto;html=1;entryX=0;entryY=0.5;entryDx=0;entryDy=0;" parent="1" source="RVGChMHn7xWEIKGy9dse-23" target="RVGChMHn7xWEIKGy9dse-7" edge="1">
          <mxGeometry relative="1" as="geometry" />
        </mxCell>
        <mxCell id="751YOafHhsMWOAO13Wd9-3" style="edgeStyle=orthogonalEdgeStyle;rounded=0;orthogonalLoop=1;jettySize=auto;html=1;entryX=0.5;entryY=1;entryDx=0;entryDy=0;" edge="1" parent="1" source="RVGChMHn7xWEIKGy9dse-1" target="751YOafHhsMWOAO13Wd9-1">
          <mxGeometry relative="1" as="geometry" />
        </mxCell>
        <mxCell id="751YOafHhsMWOAO13Wd9-5" value="" style="group" vertex="1" connectable="0" parent="1">
          <mxGeometry x="1110" y="-165" width="290" height="160" as="geometry" />
        </mxCell>
        <mxCell id="751YOafHhsMWOAO13Wd9-1" value="" style="rounded=1;whiteSpace=wrap;html=1;fillColor=#fff2cc;strokeColor=#d6b656;" vertex="1" parent="751YOafHhsMWOAO13Wd9-5">
          <mxGeometry width="290" height="160" as="geometry" />
        </mxCell>
        <mxCell id="751YOafHhsMWOAO13Wd9-2" value="Renishaw.Model" style="text;html=1;align=center;verticalAlign=middle;whiteSpace=wrap;rounded=0;fontSize=24;" vertex="1" parent="751YOafHhsMWOAO13Wd9-5">
          <mxGeometry x="99.5" y="70" width="91" height="30" as="geometry" />
        </mxCell>
      </root>
    </mxGraphModel>
  </diagram>
</mxfile>
